<svg width="126" height="114" viewBox="0 0 126 114" fill="none" xmlns="http://www.w3.org/2000/svg">
<g filter="url(#filter0_d_146_68)">
<path d="M31.7247 32.9642H31.959C31.9468 33.0765 31.9147 33.177 31.8626 33.2657C31.8105 33.3545 31.7369 33.4248 31.6416 33.4769C31.5464 33.5282 31.4276 33.5538 31.2852 33.5538C31.181 33.5538 31.0862 33.5343 31.0008 33.4952C30.9161 33.4562 30.8433 33.4008 30.7823 33.3292C30.7212 33.2568 30.674 33.1701 30.6407 33.0692C30.6081 32.9675 30.5918 32.8544 30.5918 32.7299V32.5529C30.5918 32.4283 30.6081 32.3156 30.6407 32.2147C30.674 32.113 30.7216 32.0259 30.7835 31.9535C30.8462 31.8811 30.9214 31.8253 31.0093 31.7863C31.0972 31.7472 31.1961 31.7277 31.306 31.7277C31.4402 31.7277 31.5538 31.7529 31.6465 31.8033C31.7393 31.8538 31.8113 31.9238 31.8626 32.0133C31.9147 32.102 31.9468 32.205 31.959 32.3221H31.7247C31.7133 32.2391 31.6921 32.1679 31.6612 32.1085C31.6303 32.0483 31.5863 32.0019 31.5293 31.9694C31.4724 31.9368 31.3979 31.9205 31.306 31.9205C31.227 31.9205 31.1574 31.9356 31.0972 31.9657C31.0378 31.9958 30.9878 32.0385 30.9471 32.0939C30.9072 32.1492 30.8771 32.2155 30.8567 32.2928C30.8364 32.3702 30.8262 32.456 30.8262 32.5504V32.7299C30.8262 32.8169 30.8352 32.8987 30.8531 32.9752C30.8718 33.0517 30.8999 33.1189 30.9373 33.1766C30.9747 33.2344 31.0223 33.28 31.0801 33.3134C31.1379 33.3459 31.2063 33.3622 31.2852 33.3622C31.3853 33.3622 31.4651 33.3463 31.5245 33.3146C31.5839 33.2828 31.6286 33.2373 31.6587 33.1779C31.6897 33.1184 31.7116 33.0472 31.7247 32.9642ZM33.6485 32.5846V32.6969C33.6485 32.8304 33.6318 32.95 33.5984 33.0558C33.5651 33.1616 33.5171 33.2515 33.4544 33.3256C33.3917 33.3996 33.3165 33.4562 33.2286 33.4952C33.1415 33.5343 33.0438 33.5538 32.9356 33.5538C32.8306 33.5538 32.7342 33.5343 32.6463 33.4952C32.5592 33.4562 32.4835 33.3996 32.4192 33.3256C32.3558 33.2515 32.3065 33.1616 32.2715 33.0558C32.2365 32.95 32.219 32.8304 32.219 32.6969V32.5846C32.219 32.4511 32.2361 32.3319 32.2703 32.2269C32.3053 32.1211 32.3545 32.0312 32.418 31.9572C32.4815 31.8823 32.5568 31.8253 32.6438 31.7863C32.7317 31.7472 32.8282 31.7277 32.9331 31.7277C33.0414 31.7277 33.139 31.7472 33.2261 31.7863C33.314 31.8253 33.3893 31.8823 33.4519 31.9572C33.5154 32.0312 33.5638 32.1211 33.5972 32.2269C33.6314 32.3319 33.6485 32.4511 33.6485 32.5846ZM33.4153 32.6969V32.5822C33.4153 32.4764 33.4043 32.3828 33.3824 32.3014C33.3612 32.22 33.3299 32.1517 33.2884 32.0963C33.2469 32.041 33.196 31.9991 33.1358 31.9706C33.0764 31.9421 33.0088 31.9279 32.9331 31.9279C32.8599 31.9279 32.7936 31.9421 32.7342 31.9706C32.6756 31.9991 32.6251 32.041 32.5828 32.0963C32.5413 32.1517 32.5092 32.22 32.4864 32.3014C32.4636 32.3828 32.4522 32.4764 32.4522 32.5822V32.6969C32.4522 32.8035 32.4636 32.8979 32.4864 32.9801C32.5092 33.0615 32.5417 33.1302 32.584 33.1864C32.6272 33.2417 32.678 33.2837 32.7366 33.3121C32.796 33.3406 32.8623 33.3549 32.9356 33.3549C33.0121 33.3549 33.08 33.3406 33.1394 33.3121C33.1989 33.2837 33.2489 33.2417 33.2896 33.1864C33.3311 33.1302 33.3624 33.0615 33.3836 32.9801C33.4047 32.8979 33.4153 32.8035 33.4153 32.6969ZM34.0757 31.7521H34.304L34.8863 33.201L35.4673 31.7521H35.6968L34.9742 33.5294H34.7959L34.0757 31.7521ZM34.0013 31.7521H34.2027L34.2356 32.8361V33.5294H34.0013V31.7521ZM35.5686 31.7521H35.7701V33.5294H35.5357V32.8361L35.5686 31.7521ZM36.8394 32.8324H36.3645V32.6407H36.8394C36.9314 32.6407 37.0058 32.6261 37.0628 32.5968C37.1198 32.5675 37.1613 32.5268 37.1873 32.4747C37.2142 32.4226 37.2276 32.3632 37.2276 32.2965C37.2276 32.2355 37.2142 32.1781 37.1873 32.1244C37.1613 32.0707 37.1198 32.0275 37.0628 31.995C37.0058 31.9616 36.9314 31.9449 36.8394 31.9449H36.4195V33.5294H36.1839V31.7521H36.8394C36.9737 31.7521 37.0872 31.7753 37.18 31.8217C37.2727 31.868 37.3431 31.9323 37.3912 32.0145C37.4392 32.0959 37.4632 32.1891 37.4632 32.2941C37.4632 32.408 37.4392 32.5052 37.3912 32.5858C37.3431 32.6664 37.2727 32.7278 37.18 32.7701C37.0872 32.8116 36.9737 32.8324 36.8394 32.8324ZM39.1294 32.5846V32.6969C39.1294 32.8304 39.1128 32.95 39.0794 33.0558C39.046 33.1616 38.998 33.2515 38.9353 33.3256C38.8727 33.3996 38.7974 33.4562 38.7095 33.4952C38.6224 33.5343 38.5248 33.5538 38.4165 33.5538C38.3116 33.5538 38.2151 33.5343 38.1272 33.4952C38.0402 33.4562 37.9645 33.3996 37.9002 33.3256C37.8367 33.2515 37.7875 33.1616 37.7525 33.0558C37.7175 32.95 37.7 32.8304 37.7 32.6969V32.5846C37.7 32.4511 37.7171 32.3319 37.7513 32.2269C37.7863 32.1211 37.8355 32.0312 37.899 31.9572C37.9624 31.8823 38.0377 31.8253 38.1248 31.7863C38.2127 31.7472 38.3091 31.7277 38.4141 31.7277C38.5223 31.7277 38.62 31.7472 38.7071 31.7863C38.795 31.8253 38.8702 31.8823 38.9329 31.9572C38.9964 32.0312 39.0448 32.1211 39.0782 32.2269C39.1123 32.3319 39.1294 32.4511 39.1294 32.5846ZM38.8963 32.6969V32.5822C38.8963 32.4764 38.8853 32.3828 38.8633 32.3014C38.8422 32.22 38.8108 32.1517 38.7693 32.0963C38.7278 32.041 38.677 31.9991 38.6167 31.9706C38.5573 31.9421 38.4898 31.9279 38.4141 31.9279C38.3409 31.9279 38.2745 31.9421 38.2151 31.9706C38.1565 31.9991 38.1061 32.041 38.0638 32.0963C38.0223 32.1517 37.9901 32.22 37.9673 32.3014C37.9445 32.3828 37.9331 32.4764 37.9331 32.5822V32.6969C37.9331 32.8035 37.9445 32.8979 37.9673 32.9801C37.9901 33.0615 38.0227 33.1302 38.065 33.1864C38.1081 33.2417 38.159 33.2837 38.2176 33.3121C38.277 33.3406 38.3433 33.3549 38.4165 33.3549C38.493 33.3549 38.561 33.3406 38.6204 33.3121C38.6798 33.2837 38.7299 33.2417 38.7706 33.1864C38.8121 33.1302 38.8434 33.0615 38.8645 32.9801C38.8857 32.8979 38.8963 32.8035 38.8963 32.6969ZM40.8494 31.7521V33.5294H40.6126L39.7178 32.1586V33.5294H39.4822V31.7521H39.7178L40.6163 33.1266V31.7521H40.8494ZM42.396 33.3378V33.5294H41.4549V33.3378H42.396ZM41.5025 31.7521V33.5294H41.2669V31.7521H41.5025ZM42.2715 32.5162V32.7079H41.4549V32.5162H42.2715ZM42.3838 31.7521V31.9449H41.4549V31.7521H42.3838ZM35.7066 35.7521V37.5294H35.4698L34.575 36.1586V37.5294H34.3394V35.7521H34.575L35.4734 37.1266V35.7521H35.7066ZM36.7442 35.7521V37.5294H36.5123V35.7521H36.7442ZM37.3155 35.7521V35.9449H35.9422V35.7521H37.3155ZM38.7083 37.3378V37.5294H37.7671V37.3378H38.7083ZM37.8147 35.7521V37.5294H37.5791V35.7521H37.8147ZM38.5838 36.5162V36.7079H37.7671V36.5162H38.5838ZM38.6961 35.7521V35.9449H37.7671V35.7521H38.6961Z" fill="#465049" fill-opacity="0.95" shape-rendering="crispEdges"/>
</g>
<g filter="url(#filter1_d_146_68)">
<path d="M54.8998 32.0462V33.8235H54.6642V32.0462H54.8998ZM55.6444 32.8457V33.0386H54.8485V32.8457H55.6444ZM55.7653 32.0462V32.239H54.8485V32.0462H55.7653ZM56.4965 32.2036L55.9081 33.8235H55.6676L56.3451 32.0462H56.5001L56.4965 32.2036ZM56.9896 33.8235L56.4 32.2036L56.3964 32.0462H56.5514L57.2313 33.8235H56.9896ZM56.9591 33.1656V33.3584H55.9606V33.1656H56.9591ZM58.5473 33.6319V33.8235H57.6586V33.6319H58.5473ZM57.705 32.0462V33.8235H57.4694V32.0462H57.705ZM54.9743 35.0462V36.8235H54.7423V35.0462H54.9743ZM55.5456 35.0462V35.239H54.1723V35.0462H55.5456ZM56.3695 35.2036L55.7811 36.8235H55.5407L56.2182 35.0462H56.3732L56.3695 35.2036ZM56.8627 36.8235L56.2731 35.2036L56.2694 35.0462H56.4245L57.1044 36.8235H56.8627ZM56.8322 36.1656V36.3584H55.8336V36.1656H56.8322ZM58.2897 36.3743C58.2897 36.3328 58.2832 36.2962 58.2702 36.2644C58.258 36.2319 58.236 36.2026 58.2042 36.1765C58.1733 36.1505 58.1302 36.1257 58.0748 36.1021C58.0203 36.0785 57.9511 36.0545 57.8673 36.0301C57.7794 36.004 57.7001 35.9751 57.6293 35.9434C57.5585 35.9108 57.4979 35.8738 57.4474 35.8323C57.397 35.7908 57.3583 35.7432 57.3314 35.6895C57.3046 35.6358 57.2912 35.5743 57.2912 35.5052C57.2912 35.436 57.3054 35.3721 57.3339 35.3135C57.3624 35.2549 57.4031 35.2041 57.456 35.1609C57.5097 35.117 57.5735 35.0828 57.6476 35.0584C57.7217 35.034 57.8043 35.0218 57.8954 35.0218C58.0289 35.0218 58.142 35.0474 58.2348 35.0987C58.3283 35.1491 58.3996 35.2154 58.4484 35.2976C58.4972 35.379 58.5216 35.4661 58.5216 35.5589H58.2872C58.2872 35.4921 58.273 35.4331 58.2445 35.3819C58.216 35.3298 58.1729 35.2891 58.1151 35.2598C58.0574 35.2297 57.9841 35.2146 57.8954 35.2146C57.8116 35.2146 57.7424 35.2272 57.6879 35.2525C57.6334 35.2777 57.5927 35.3119 57.5658 35.355C57.5398 35.3981 57.5268 35.4474 57.5268 35.5027C57.5268 35.5402 57.5345 35.5743 57.5499 35.6053C57.5662 35.6354 57.591 35.6634 57.6244 35.6895C57.6586 35.7155 57.7017 35.7395 57.7538 35.7615C57.8067 35.7835 57.8698 35.8046 57.943 35.825C58.0439 35.8535 58.131 35.8852 58.2042 35.9202C58.2775 35.9552 58.3377 35.9947 58.3849 36.0386C58.4329 36.0817 58.4683 36.131 58.4911 36.1863C58.5147 36.2408 58.5265 36.3027 58.5265 36.3719C58.5265 36.4443 58.5119 36.5098 58.4826 36.5684C58.4533 36.627 58.4114 36.677 58.3568 36.7185C58.3023 36.76 58.2368 36.7922 58.1603 36.815C58.0846 36.8369 58 36.8479 57.9064 36.8479C57.8242 36.8479 57.7432 36.8365 57.6635 36.8138C57.5845 36.791 57.5125 36.7568 57.4474 36.7112C57.3831 36.6656 57.3314 36.6095 57.2924 36.5428C57.2541 36.4752 57.235 36.3971 57.235 36.3084H57.4694C57.4694 36.3694 57.4812 36.4219 57.5048 36.4659C57.5284 36.509 57.5605 36.5448 57.6012 36.5733C57.6427 36.6018 57.6895 36.6229 57.7416 36.6367C57.7945 36.6498 57.8494 36.6563 57.9064 36.6563C57.9886 36.6563 58.0582 36.6449 58.1151 36.6221C58.1721 36.5993 58.2152 36.5668 58.2445 36.5244C58.2746 36.4821 58.2897 36.4321 58.2897 36.3743Z" fill="#465049" fill-opacity="0.95" shape-rendering="crispEdges"/>
</g>
<g filter="url(#filter2_d_146_68)">
<path d="M64.6366 32.0462V33.8235H64.3997L63.505 32.4527V33.8235H63.2694V32.0462H63.505L64.4034 33.4207V32.0462H64.6366ZM65.7376 32.0364V33.8235H65.5118V32.3184L65.0565 32.4844V32.2805L65.7022 32.0364H65.7376Z" fill="#465049" fill-opacity="0.95" shape-rendering="crispEdges"/>
</g>
<g filter="url(#filter3_d_146_68)">
<path d="M72.9293 32.0462V33.8235H72.6924L71.7977 32.4527V33.8235H71.5621V32.0462H71.7977L72.6961 33.4207V32.0462H72.9293ZM74.4527 33.638V33.8235H73.2894V33.6612L73.8716 33.013C73.9433 32.9332 73.9986 32.8657 74.0377 32.8103C74.0775 32.7542 74.1052 32.7041 74.1207 32.6602C74.1369 32.6154 74.1451 32.5699 74.1451 32.5235C74.1451 32.4649 74.1329 32.412 74.1085 32.3648C74.0849 32.3168 74.0499 32.2785 74.0035 32.25C73.9571 32.2215 73.9009 32.2073 73.835 32.2073C73.7561 32.2073 73.6902 32.2228 73.6373 32.2537C73.5852 32.2838 73.5461 32.3261 73.5201 32.3806C73.494 32.4352 73.481 32.4978 73.481 32.5686H73.2552C73.2552 32.4685 73.2772 32.377 73.3211 32.294C73.365 32.211 73.4302 32.1451 73.5164 32.0962C73.6027 32.0466 73.7089 32.0218 73.835 32.0218C73.9473 32.0218 74.0434 32.0417 74.1231 32.0816C74.2029 32.1206 74.2639 32.176 74.3062 32.2476C74.3493 32.3184 74.3709 32.4014 74.3709 32.4966C74.3709 32.5487 74.362 32.6016 74.3441 32.6553C74.327 32.7082 74.303 32.7611 74.272 32.814C74.2419 32.8669 74.2065 32.919 74.1658 32.9702C74.126 33.0215 74.0832 33.072 74.0377 33.1216L73.5616 33.638H74.4527Z" fill="#465049" fill-opacity="0.95" shape-rendering="crispEdges"/>
</g>
<g filter="url(#filter4_d_146_68)">
<path d="M80.6018 32.2036L80.0134 33.8235H79.7729L80.4504 32.0462H80.6055L80.6018 32.2036ZM81.095 33.8235L80.5054 32.2036L80.5017 32.0462H80.6567L81.3367 33.8235H81.095ZM81.0645 33.1656V33.3584H80.0659V33.1656H81.0645ZM81.8103 32.0462V33.8235H81.5747V32.0462H81.8103ZM82.5549 32.8457V33.0386H81.759V32.8457H82.5549ZM82.6758 32.0462V32.239H81.759V32.0462H82.6758Z" fill="#465049" fill-opacity="0.95" shape-rendering="crispEdges"/>
</g>
<g filter="url(#filter5_d_146_68)">
<path d="M86.8437 32.0462H87.072L87.6543 33.4951L88.2353 32.0462H88.4648L87.7422 33.8235H87.5639L86.8437 32.0462ZM86.7693 32.0462H86.9707L87.0036 33.1302V33.8235H86.7693V32.0462ZM88.3366 32.0462H88.5381V33.8235H88.3037V33.1302L88.3366 32.0462ZM90.081 33.6319V33.8235H89.1399V33.6319H90.081ZM89.1875 32.0462V33.8235H88.9519V32.0462H89.1875ZM89.9565 32.8103V33.002H89.1399V32.8103H89.9565ZM90.0688 32.0462V32.239H89.1399V32.0462H90.0688ZM90.8537 33.8235H90.4826L90.4851 33.6319H90.8537C90.9807 33.6319 91.0865 33.6054 91.1711 33.5525C91.2557 33.4988 91.3192 33.4239 91.3615 33.3279C91.4047 33.2311 91.4262 33.118 91.4262 32.9886V32.8799C91.4262 32.7782 91.414 32.6879 91.3896 32.6089C91.3652 32.5292 91.3294 32.462 91.2822 32.4075C91.235 32.3522 91.1772 32.3103 91.1089 32.2818C91.0413 32.2533 90.9636 32.239 90.8757 32.239H90.4753V32.0462H90.8757C90.9921 32.0462 91.0983 32.0657 91.1943 32.1048C91.2903 32.143 91.3729 32.1988 91.4421 32.272C91.5121 32.3444 91.5658 32.4323 91.6032 32.5357C91.6407 32.6382 91.6594 32.7538 91.6594 32.8824V32.9886C91.6594 33.1171 91.6407 33.2331 91.6032 33.3365C91.5658 33.439 91.5117 33.5265 91.4409 33.5989C91.3709 33.6713 91.2863 33.7271 91.187 33.7661C91.0885 33.8044 90.9774 33.8235 90.8537 33.8235ZM90.6084 32.0462V33.8235H90.3728V32.0462H90.6084ZM92.2661 32.0462V33.8235H92.0305V32.0462H92.2661ZM89.5854 35.2036L88.997 36.8235H88.7566L89.434 35.0462H89.5891L89.5854 35.2036ZM90.0786 36.8235L89.489 35.2036L89.4853 35.0462H89.6403L90.3203 36.8235H90.0786ZM90.0481 36.1656V36.3584H89.0495V36.1656H90.0481Z" fill="#465049" fill-opacity="0.95" shape-rendering="crispEdges"/>
</g>
<g filter="url(#filter6_d_146_68)">
<path d="M97.6405 33.3743C97.6405 33.3328 97.634 33.2962 97.6209 33.2644C97.6087 33.2319 97.5868 33.2026 97.555 33.1765C97.5241 33.1505 97.481 33.1257 97.4256 33.1021C97.3711 33.0785 97.3019 33.0545 97.2181 33.0301C97.1302 33.004 97.0509 32.9751 96.9801 32.9434C96.9093 32.9108 96.8486 32.8738 96.7982 32.8323C96.7477 32.7908 96.7091 32.7432 96.6822 32.6895C96.6554 32.6358 96.6419 32.5743 96.6419 32.5052C96.6419 32.436 96.6562 32.3721 96.6847 32.3135C96.7131 32.2549 96.7538 32.2041 96.8067 32.1609C96.8604 32.117 96.9243 32.0828 96.9984 32.0584C97.0724 32.034 97.155 32.0218 97.2462 32.0218C97.3796 32.0218 97.4928 32.0474 97.5855 32.0987C97.6791 32.1491 97.7503 32.2154 97.7992 32.2976C97.848 32.379 97.8724 32.4661 97.8724 32.5589H97.638C97.638 32.4921 97.6238 32.4331 97.5953 32.3819C97.5668 32.3298 97.5237 32.2891 97.4659 32.2598C97.4081 32.2297 97.3349 32.2146 97.2462 32.2146C97.1624 32.2146 97.0932 32.2272 97.0387 32.2525C96.9841 32.2777 96.9434 32.3119 96.9166 32.355C96.8905 32.3981 96.8775 32.4474 96.8775 32.5027C96.8775 32.5402 96.8853 32.5743 96.9007 32.6053C96.917 32.6354 96.9418 32.6634 96.9752 32.6895C97.0094 32.7155 97.0525 32.7395 97.1046 32.7615C97.1575 32.7835 97.2205 32.8046 97.2938 32.825C97.3947 32.8535 97.4818 32.8852 97.555 32.9202C97.6283 32.9552 97.6885 32.9947 97.7357 33.0386C97.7837 33.0817 97.8191 33.131 97.8419 33.1863C97.8655 33.2408 97.8773 33.3027 97.8773 33.3719C97.8773 33.4443 97.8626 33.5098 97.8333 33.5684C97.804 33.627 97.7621 33.677 97.7076 33.7185C97.6531 33.76 97.5876 33.7922 97.5111 33.815C97.4354 33.8369 97.3508 33.8479 97.2572 33.8479C97.175 33.8479 97.094 33.8365 97.0142 33.8138C96.9353 33.791 96.8633 33.7568 96.7982 33.7112C96.7339 33.6656 96.6822 33.6095 96.6432 33.5428C96.6049 33.4752 96.5858 33.3971 96.5858 33.3084H96.8202C96.8202 33.3694 96.832 33.4219 96.8556 33.4659C96.8792 33.509 96.9113 33.5448 96.952 33.5733C96.9935 33.6018 97.0403 33.6229 97.0924 33.6367C97.1453 33.6498 97.2002 33.6563 97.2572 33.6563C97.3394 33.6563 97.4089 33.6449 97.4659 33.6221C97.5229 33.5993 97.566 33.5668 97.5953 33.5244C97.6254 33.4821 97.6405 33.4321 97.6405 33.3743ZM98.4303 32.0462V33.8235H98.1947V32.0462H98.4303ZM99.4788 32.0462V33.8235H99.2469V32.0462H99.4788ZM100.05 32.0462V32.239H98.6768V32.0462H100.05ZM101.331 32.0462H101.565V33.2486C101.565 33.382 101.535 33.4931 101.476 33.5818C101.417 33.6705 101.338 33.7373 101.239 33.782C101.141 33.826 101.035 33.8479 100.92 33.8479C100.8 33.8479 100.691 33.826 100.593 33.782C100.497 33.7373 100.42 33.6705 100.363 33.5818C100.306 33.4931 100.278 33.382 100.278 33.2486V32.0462H100.512V33.2486C100.512 33.3413 100.529 33.4178 100.563 33.4781C100.597 33.5383 100.645 33.583 100.706 33.6123C100.768 33.6416 100.839 33.6563 100.92 33.6563C101.003 33.6563 101.074 33.6416 101.135 33.6123C101.197 33.583 101.245 33.5383 101.279 33.4781C101.314 33.4178 101.331 33.3413 101.331 33.2486V32.0462ZM102.566 32.2036L101.978 33.8235H101.737L102.415 32.0462H102.57L102.566 32.2036ZM103.059 33.8235L102.47 32.2036L102.466 32.0462H102.621L103.301 33.8235H103.059ZM103.029 33.1656V33.3584H102.03V33.1656H103.029ZM98.6988 36.2583H98.9332C98.921 36.3706 98.8888 36.4711 98.8368 36.5598C98.7847 36.6485 98.711 36.7189 98.6158 36.771C98.5206 36.8223 98.4018 36.8479 98.2594 36.8479C98.1552 36.8479 98.0604 36.8284 97.9749 36.7893C97.8903 36.7503 97.8175 36.6949 97.7564 36.6233C97.6954 36.5509 97.6482 36.4642 97.6148 36.3633C97.5823 36.2616 97.566 36.1485 97.566 36.024V35.847C97.566 35.7224 97.5823 35.6097 97.6148 35.5088C97.6482 35.4071 97.6958 35.32 97.7577 35.2476C97.8203 35.1752 97.8956 35.1194 97.9835 35.0804C98.0714 35.0413 98.1703 35.0218 98.2801 35.0218C98.4144 35.0218 98.5279 35.047 98.6207 35.0974C98.7135 35.1479 98.7855 35.2179 98.8368 35.3074C98.8888 35.3961 98.921 35.4991 98.9332 35.6162H98.6988C98.6874 35.5332 98.6663 35.462 98.6353 35.4026C98.6044 35.3424 98.5605 35.296 98.5035 35.2635C98.4465 35.2309 98.3721 35.2146 98.2801 35.2146C98.2012 35.2146 98.1316 35.2297 98.0714 35.2598C98.012 35.2899 97.9619 35.3326 97.9212 35.388C97.8814 35.4433 97.8512 35.5096 97.8309 35.5869C97.8106 35.6643 97.8004 35.7501 97.8004 35.8445V36.024C97.8004 36.111 97.8093 36.1928 97.8272 36.2693C97.846 36.3458 97.874 36.413 97.9115 36.4707C97.9489 36.5285 97.9965 36.5741 98.0543 36.6075C98.1121 36.64 98.1804 36.6563 98.2594 36.6563C98.3595 36.6563 98.4392 36.6404 98.4986 36.6087C98.558 36.5769 98.6028 36.5314 98.6329 36.472C98.6638 36.4125 98.6858 36.3413 98.6988 36.2583ZM98.1751 36.8357H98.3375L98.3228 36.9004C98.37 36.9086 98.4128 36.9281 98.451 36.959C98.4901 36.9899 98.5096 37.0408 98.5096 37.1116C98.5096 37.1499 98.5015 37.1844 98.4852 37.2154C98.4697 37.2471 98.4465 37.274 98.4156 37.2959C98.3847 37.3187 98.346 37.3362 98.2996 37.3484C98.2541 37.3606 98.2008 37.3667 98.1397 37.3667L98.1312 37.2361C98.1686 37.2361 98.2024 37.232 98.2325 37.2239C98.2634 37.2158 98.2878 37.2027 98.3057 37.1848C98.3245 37.1669 98.3338 37.1437 98.3338 37.1153C98.3338 37.0884 98.3269 37.0673 98.3131 37.0518C98.2992 37.0363 98.2777 37.0245 98.2484 37.0164C98.2199 37.0091 98.1829 37.0038 98.1373 37.0005L98.1751 36.8357ZM99.9122 35.2036L99.3238 36.8235H99.0833L99.7608 35.0462H99.9159L99.9122 35.2036ZM100.405 36.8235L99.8158 35.2036L99.8121 35.0462H99.9671L100.647 36.8235H100.405ZM100.375 36.1656V36.3584H99.3763V36.1656H100.375ZM100.149 34.5933L100.302 34.6067C100.302 34.6661 100.29 34.7182 100.266 34.763C100.243 34.8077 100.211 34.8423 100.171 34.8667C100.132 34.8911 100.088 34.9034 100.038 34.9034C99.9964 34.9034 99.9622 34.8977 99.9354 34.8863C99.9085 34.8741 99.8845 34.8606 99.8634 34.846C99.8422 34.8305 99.8198 34.8171 99.7962 34.8057C99.7734 34.7935 99.745 34.7874 99.7108 34.7874C99.6766 34.7874 99.6477 34.8004 99.6241 34.8264C99.6013 34.8525 99.5899 34.8846 99.5899 34.9229L99.4373 34.9156C99.4373 34.8562 99.4487 34.8041 99.4715 34.7593C99.4951 34.7137 99.5269 34.6783 99.5667 34.6531C99.6066 34.6271 99.651 34.614 99.6998 34.614C99.7348 34.614 99.7653 34.6201 99.7913 34.6324C99.8182 34.6437 99.8434 34.6572 99.867 34.6726C99.8906 34.6873 99.915 34.7007 99.9403 34.7129C99.9655 34.7243 99.9944 34.73 100.027 34.73C100.061 34.73 100.09 34.717 100.114 34.6909C100.137 34.6641 100.149 34.6315 100.149 34.5933ZM102.239 35.8787V35.991C102.239 36.1245 102.222 36.2441 102.189 36.3499C102.155 36.4557 102.107 36.5456 102.045 36.6197C101.982 36.6937 101.907 36.7503 101.819 36.7893C101.732 36.8284 101.634 36.8479 101.526 36.8479C101.421 36.8479 101.325 36.8284 101.237 36.7893C101.15 36.7503 101.074 36.6937 101.01 36.6197C100.946 36.5456 100.897 36.4557 100.862 36.3499C100.827 36.2441 100.809 36.1245 100.809 35.991V35.8787C100.809 35.7452 100.827 35.626 100.861 35.521C100.896 35.4152 100.945 35.3253 101.008 35.2513C101.072 35.1764 101.147 35.1194 101.234 35.0804C101.322 35.0413 101.419 35.0218 101.524 35.0218C101.632 35.0218 101.729 35.0413 101.816 35.0804C101.904 35.1194 101.98 35.1764 102.042 35.2513C102.106 35.3253 102.154 35.4152 102.188 35.521C102.222 35.626 102.239 35.7452 102.239 35.8787ZM102.006 35.991V35.8763C102.006 35.7705 101.995 35.6769 101.973 35.5955C101.952 35.5141 101.92 35.4457 101.879 35.3904C101.837 35.3351 101.786 35.2932 101.726 35.2647C101.667 35.2362 101.599 35.222 101.524 35.222C101.45 35.222 101.384 35.2362 101.325 35.2647C101.266 35.2932 101.215 35.3351 101.173 35.3904C101.132 35.4457 101.1 35.5141 101.077 35.5955C101.054 35.6769 101.043 35.7705 101.043 35.8763V35.991C101.043 36.0976 101.054 36.192 101.077 36.2742C101.1 36.3556 101.132 36.4243 101.174 36.4805C101.218 36.5358 101.268 36.5777 101.327 36.6062C101.386 36.6347 101.453 36.649 101.526 36.649C101.602 36.649 101.67 36.6347 101.73 36.6062C101.789 36.5777 101.839 36.5358 101.88 36.4805C101.921 36.4243 101.953 36.3556 101.974 36.2742C101.995 36.192 102.006 36.0976 102.006 35.991Z" fill="#465049" fill-opacity="0.95" shape-rendering="crispEdges"/>
</g>
<g filter="url(#filter7_d_146_68)">
<path d="M47.9832 24.2686H46.5223L46.5145 23.4639H47.741C47.9572 23.4639 48.1343 23.4366 48.2723 23.3819C48.4103 23.3246 48.5132 23.2426 48.5809 23.1358C48.6512 23.0264 48.6864 22.8936 48.6864 22.7374C48.6864 22.5603 48.6525 22.4171 48.5848 22.3077C48.5197 22.1983 48.4168 22.1189 48.2762 22.0694C48.1382 22.0199 47.9598 21.9952 47.741 21.9952H46.9285V26.7647H45.7567V21.0772H47.741C48.0718 21.0772 48.3673 21.1085 48.6278 21.171C48.8908 21.2335 49.1134 21.3285 49.2957 21.4561C49.478 21.5837 49.6173 21.7452 49.7137 21.9405C49.8101 22.1332 49.8582 22.3624 49.8582 22.628C49.8582 22.8624 49.8048 23.0785 49.6981 23.2764C49.5939 23.4743 49.4285 23.6358 49.202 23.7608C48.978 23.8858 48.6851 23.9548 48.3231 23.9678L47.9832 24.2686ZM47.9324 26.7647H46.202L46.659 25.8506H47.9324C48.1382 25.8506 48.3061 25.8181 48.4364 25.753C48.5666 25.6853 48.6629 25.5941 48.7254 25.4796C48.7879 25.365 48.8192 25.2335 48.8192 25.085C48.8192 24.9184 48.7905 24.7738 48.7332 24.6514C48.6785 24.529 48.59 24.4353 48.4676 24.3702C48.3452 24.3025 48.1837 24.2686 47.9832 24.2686H46.8543L46.8621 23.4639H48.2684L48.5379 23.7803C48.8843 23.7751 49.1629 23.8363 49.3739 23.9639C49.5874 24.0889 49.7423 24.2517 49.8387 24.4522C49.9377 24.6527 49.9871 24.8676 49.9871 25.0967C49.9871 25.4613 49.9077 25.7686 49.7489 26.0186C49.59 26.266 49.3569 26.4522 49.0496 26.5772C48.7449 26.7022 48.3726 26.7647 47.9324 26.7647ZM55.5379 23.7881V24.0577C55.5379 24.49 55.4793 24.878 55.3621 25.2217C55.2449 25.5655 55.0796 25.8585 54.866 26.1006C54.6525 26.3402 54.3973 26.5238 54.1004 26.6514C53.8061 26.779 53.4793 26.8428 53.1199 26.8428C52.7632 26.8428 52.4364 26.779 52.1395 26.6514C51.8452 26.5238 51.59 26.3402 51.3739 26.1006C51.1577 25.8585 50.9897 25.5655 50.8699 25.2217C50.7528 24.878 50.6942 24.49 50.6942 24.0577V23.7881C50.6942 23.3533 50.7528 22.9652 50.8699 22.6241C50.9871 22.2803 51.1525 21.9874 51.366 21.7452C51.5822 21.503 51.8374 21.3181 52.1317 21.1905C52.4285 21.0629 52.7554 20.9991 53.1121 20.9991C53.4715 20.9991 53.7983 21.0629 54.0926 21.1905C54.3895 21.3181 54.6447 21.503 54.8582 21.7452C55.0744 21.9874 55.241 22.2803 55.3582 22.6241C55.478 22.9652 55.5379 23.3533 55.5379 23.7881ZM54.3543 24.0577V23.7803C54.3543 23.4783 54.327 23.2126 54.2723 22.9835C54.2176 22.7543 54.1369 22.5616 54.0301 22.4053C53.9233 22.2491 53.7931 22.1319 53.6395 22.0538C53.4858 21.973 53.3101 21.9327 53.1121 21.9327C52.9142 21.9327 52.7384 21.973 52.5848 22.0538C52.4337 22.1319 52.3048 22.2491 52.1981 22.4053C52.0939 22.5616 52.0145 22.7543 51.9598 22.9835C51.9051 23.2126 51.8778 23.4783 51.8778 23.7803V24.0577C51.8778 24.3572 51.9051 24.6228 51.9598 24.8546C52.0145 25.0837 52.0952 25.2777 52.202 25.4366C52.3087 25.5928 52.439 25.7113 52.5926 25.7921C52.7462 25.8728 52.922 25.9131 53.1199 25.9131C53.3179 25.9131 53.4936 25.8728 53.6473 25.7921C53.8009 25.7113 53.9298 25.5928 54.034 25.4366C54.1382 25.2777 54.2176 25.0837 54.2723 24.8546C54.327 24.6228 54.3543 24.3572 54.3543 24.0577ZM60.0379 25.8506V26.7647H57.1746V25.8506H60.0379ZM57.5535 21.0772V26.7647H56.3817V21.0772H57.5535ZM64.5262 25.8506V26.7647H61.4989V25.8506H64.5262ZM61.8817 21.0772V26.7647H60.7098V21.0772H61.8817ZM64.1317 23.3936V24.2842H61.4989V23.3936H64.1317ZM64.5223 21.0772V21.9952H61.4989V21.0772H64.5223ZM67.8309 21.0772V26.7647H66.6629V21.0772H67.8309ZM69.5809 21.0772V21.9952H64.9403V21.0772H69.5809ZM71.4949 21.0772V26.7647H70.327V21.0772H71.4949ZM73.1278 21.0772H74.1199L75.5809 25.253L77.0418 21.0772H78.034L75.9793 26.7647H75.1824L73.1278 21.0772ZM72.5926 21.0772H73.5809L73.7606 25.1475V26.7647H72.5926V21.0772ZM77.5809 21.0772H78.5731V26.7647H77.4012V25.1475L77.5809 21.0772Z" fill="#465049" fill-opacity="0.95" shape-rendering="crispEdges"/>
</g>
<g filter="url(#filter8_d_146_68)">
<path d="M12 78V28C12 16.9543 20.9543 8 32 8H94C105.046 8 114 16.9543 114 28V78C114 89.0457 105.046 98 94 98H32C20.9543 98 12 89.0457 12 78Z" stroke="#465049" stroke-opacity="0.95" stroke-width="16" shape-rendering="crispEdges"/>
</g>
<g filter="url(#filter9_d_146_68)">
<line x1="19.4634" y1="29.2647" x2="106.537" y2="29.2647" stroke="#465049" stroke-opacity="0.95" shape-rendering="crispEdges"/>
</g>
<g filter="url(#filter10_d_146_68)">
<line x1="19.4634" y1="35.1471" x2="106.537" y2="35.1471" stroke="#465049" stroke-opacity="0.95" shape-rendering="crispEdges"/>
</g>
<g filter="url(#filter11_d_146_68)">
<line x1="19.4634" y1="41.0294" x2="106.537" y2="41.0294" stroke="#465049" stroke-opacity="0.95" shape-rendering="crispEdges"/>
</g>
<g filter="url(#filter12_d_146_68)">
<line x1="19.4634" y1="46.9118" x2="106.537" y2="46.9118" stroke="#465049" stroke-opacity="0.95" shape-rendering="crispEdges"/>
</g>
<g filter="url(#filter13_d_146_68)">
<line x1="19.4634" y1="52.7941" x2="106.537" y2="52.7941" stroke="#465049" stroke-opacity="0.95" shape-rendering="crispEdges"/>
</g>
<g filter="url(#filter14_d_146_68)">
<line x1="19.4634" y1="58.6765" x2="106.537" y2="58.6765" stroke="#465049" stroke-opacity="0.95" shape-rendering="crispEdges"/>
</g>
<g filter="url(#filter15_d_146_68)">
<line x1="19.4634" y1="64.5588" x2="106.537" y2="64.5588" stroke="#465049" stroke-opacity="0.95" shape-rendering="crispEdges"/>
</g>
<g filter="url(#filter16_d_146_68)">
<line x1="19.4634" y1="70.4412" x2="106.537" y2="70.4412" stroke="#465049" stroke-opacity="0.95" shape-rendering="crispEdges"/>
</g>
<g filter="url(#filter17_d_146_68)">
<line x1="19.4634" y1="76.3235" x2="106.537" y2="76.3235" stroke="#465049" stroke-opacity="0.95" shape-rendering="crispEdges"/>
</g>
<g filter="url(#filter18_d_146_68)">
<line x1="19.9634" y1="29.7647" x2="19.9634" y2="76.8235" stroke="#465049" stroke-opacity="0.95" shape-rendering="crispEdges"/>
</g>
<g filter="url(#filter19_d_146_68)">
<line x1="106.207" y1="29.7647" x2="106.207" y2="76.8235" stroke="#465049" stroke-opacity="0.95" shape-rendering="crispEdges"/>
</g>
<g filter="url(#filter20_d_146_68)">
<line x1="85.4756" y1="29.7647" x2="85.4756" y2="76.8235" stroke="#465049" stroke-opacity="0.95" shape-rendering="crispEdges"/>
</g>
<g filter="url(#filter21_d_146_68)">
<line x1="93.7683" y1="29.7647" x2="93.7683" y2="76.8235" stroke="#465049" stroke-opacity="0.95" shape-rendering="crispEdges"/>
</g>
<g filter="url(#filter22_d_146_68)">
<line x1="68.8903" y1="29.7647" x2="68.8903" y2="76.8235" stroke="#465049" stroke-opacity="0.95" shape-rendering="crispEdges"/>
</g>
<g filter="url(#filter23_d_146_68)">
<line x1="77.1829" y1="29.7647" x2="77.1829" y2="76.8235" stroke="#465049" stroke-opacity="0.95" shape-rendering="crispEdges"/>
</g>
<g filter="url(#filter24_d_146_68)">
<line x1="52.3049" y1="29.7647" x2="52.3049" y2="76.8235" stroke="#465049" stroke-opacity="0.95" shape-rendering="crispEdges"/>
</g>
<g filter="url(#filter25_d_146_68)">
<line x1="60.5976" y1="29.7647" x2="60.5976" y2="76.8235" stroke="#465049" stroke-opacity="0.95" shape-rendering="crispEdges"/>
</g>
<defs>
<filter id="filter0_d_146_68" x="26.5918" y="31.7277" width="19.8042" height="13.8018" filterUnits="userSpaceOnUse" color-interpolation-filters="sRGB">
<feFlood flood-opacity="0" result="BackgroundImageFix"/>
<feColorMatrix in="SourceAlpha" type="matrix" values="0 0 0 0 0 0 0 0 0 0 0 0 0 0 0 0 0 0 127 0" result="hardAlpha"/>
<feOffset dy="4"/>
<feGaussianBlur stdDeviation="2"/>
<feComposite in2="hardAlpha" operator="out"/>
<feColorMatrix type="matrix" values="0 0 0 0 0 0 0 0 0 0 0 0 0 0 0 0 0 0 0.25 0"/>
<feBlend mode="normal" in2="BackgroundImageFix" result="effect1_dropShadow_146_68"/>
<feBlend mode="normal" in="SourceGraphic" in2="effect1_dropShadow_146_68" result="shape"/>
</filter>
<filter id="filter1_d_146_68" x="50.1723" y="32.0462" width="12.375" height="12.8018" filterUnits="userSpaceOnUse" color-interpolation-filters="sRGB">
<feFlood flood-opacity="0" result="BackgroundImageFix"/>
<feColorMatrix in="SourceAlpha" type="matrix" values="0 0 0 0 0 0 0 0 0 0 0 0 0 0 0 0 0 0 127 0" result="hardAlpha"/>
<feOffset dy="4"/>
<feGaussianBlur stdDeviation="2"/>
<feComposite in2="hardAlpha" operator="out"/>
<feColorMatrix type="matrix" values="0 0 0 0 0 0 0 0 0 0 0 0 0 0 0 0 0 0 0.25 0"/>
<feBlend mode="normal" in2="BackgroundImageFix" result="effect1_dropShadow_146_68"/>
<feBlend mode="normal" in="SourceGraphic" in2="effect1_dropShadow_146_68" result="shape"/>
</filter>
<filter id="filter2_d_146_68" x="59.2694" y="32.0364" width="10.4683" height="9.78711" filterUnits="userSpaceOnUse" color-interpolation-filters="sRGB">
<feFlood flood-opacity="0" result="BackgroundImageFix"/>
<feColorMatrix in="SourceAlpha" type="matrix" values="0 0 0 0 0 0 0 0 0 0 0 0 0 0 0 0 0 0 127 0" result="hardAlpha"/>
<feOffset dy="4"/>
<feGaussianBlur stdDeviation="2"/>
<feComposite in2="hardAlpha" operator="out"/>
<feColorMatrix type="matrix" values="0 0 0 0 0 0 0 0 0 0 0 0 0 0 0 0 0 0 0.25 0"/>
<feBlend mode="normal" in2="BackgroundImageFix" result="effect1_dropShadow_146_68"/>
<feBlend mode="normal" in="SourceGraphic" in2="effect1_dropShadow_146_68" result="shape"/>
</filter>
<filter id="filter3_d_146_68" x="67.5621" y="32.0218" width="10.8906" height="9.80176" filterUnits="userSpaceOnUse" color-interpolation-filters="sRGB">
<feFlood flood-opacity="0" result="BackgroundImageFix"/>
<feColorMatrix in="SourceAlpha" type="matrix" values="0 0 0 0 0 0 0 0 0 0 0 0 0 0 0 0 0 0 127 0" result="hardAlpha"/>
<feOffset dy="4"/>
<feGaussianBlur stdDeviation="2"/>
<feComposite in2="hardAlpha" operator="out"/>
<feColorMatrix type="matrix" values="0 0 0 0 0 0 0 0 0 0 0 0 0 0 0 0 0 0 0.25 0"/>
<feBlend mode="normal" in2="BackgroundImageFix" result="effect1_dropShadow_146_68"/>
<feBlend mode="normal" in="SourceGraphic" in2="effect1_dropShadow_146_68" result="shape"/>
</filter>
<filter id="filter4_d_146_68" x="75.7729" y="32.0462" width="10.9028" height="9.77734" filterUnits="userSpaceOnUse" color-interpolation-filters="sRGB">
<feFlood flood-opacity="0" result="BackgroundImageFix"/>
<feColorMatrix in="SourceAlpha" type="matrix" values="0 0 0 0 0 0 0 0 0 0 0 0 0 0 0 0 0 0 127 0" result="hardAlpha"/>
<feOffset dy="4"/>
<feGaussianBlur stdDeviation="2"/>
<feComposite in2="hardAlpha" operator="out"/>
<feColorMatrix type="matrix" values="0 0 0 0 0 0 0 0 0 0 0 0 0 0 0 0 0 0 0.25 0"/>
<feBlend mode="normal" in2="BackgroundImageFix" result="effect1_dropShadow_146_68"/>
<feBlend mode="normal" in="SourceGraphic" in2="effect1_dropShadow_146_68" result="shape"/>
</filter>
<filter id="filter5_d_146_68" x="82.7693" y="32.0462" width="13.4968" height="12.7773" filterUnits="userSpaceOnUse" color-interpolation-filters="sRGB">
<feFlood flood-opacity="0" result="BackgroundImageFix"/>
<feColorMatrix in="SourceAlpha" type="matrix" values="0 0 0 0 0 0 0 0 0 0 0 0 0 0 0 0 0 0 127 0" result="hardAlpha"/>
<feOffset dy="4"/>
<feGaussianBlur stdDeviation="2"/>
<feComposite in2="hardAlpha" operator="out"/>
<feColorMatrix type="matrix" values="0 0 0 0 0 0 0 0 0 0 0 0 0 0 0 0 0 0 0.25 0"/>
<feBlend mode="normal" in2="BackgroundImageFix" result="effect1_dropShadow_146_68"/>
<feBlend mode="normal" in="SourceGraphic" in2="effect1_dropShadow_146_68" result="shape"/>
</filter>
<filter id="filter6_d_146_68" x="92.5858" y="32.0218" width="14.7151" height="13.345" filterUnits="userSpaceOnUse" color-interpolation-filters="sRGB">
<feFlood flood-opacity="0" result="BackgroundImageFix"/>
<feColorMatrix in="SourceAlpha" type="matrix" values="0 0 0 0 0 0 0 0 0 0 0 0 0 0 0 0 0 0 127 0" result="hardAlpha"/>
<feOffset dy="4"/>
<feGaussianBlur stdDeviation="2"/>
<feComposite in2="hardAlpha" operator="out"/>
<feColorMatrix type="matrix" values="0 0 0 0 0 0 0 0 0 0 0 0 0 0 0 0 0 0 0.25 0"/>
<feBlend mode="normal" in2="BackgroundImageFix" result="effect1_dropShadow_146_68"/>
<feBlend mode="normal" in="SourceGraphic" in2="effect1_dropShadow_146_68" result="shape"/>
</filter>
<filter id="filter7_d_146_68" x="41.7567" y="20.9991" width="40.8164" height="13.8438" filterUnits="userSpaceOnUse" color-interpolation-filters="sRGB">
<feFlood flood-opacity="0" result="BackgroundImageFix"/>
<feColorMatrix in="SourceAlpha" type="matrix" values="0 0 0 0 0 0 0 0 0 0 0 0 0 0 0 0 0 0 127 0" result="hardAlpha"/>
<feOffset dy="4"/>
<feGaussianBlur stdDeviation="2"/>
<feComposite in2="hardAlpha" operator="out"/>
<feColorMatrix type="matrix" values="0 0 0 0 0 0 0 0 0 0 0 0 0 0 0 0 0 0 0.25 0"/>
<feBlend mode="normal" in2="BackgroundImageFix" result="effect1_dropShadow_146_68"/>
<feBlend mode="normal" in="SourceGraphic" in2="effect1_dropShadow_146_68" result="shape"/>
</filter>
<filter id="filter8_d_146_68" x="0" y="0" width="126" height="114" filterUnits="userSpaceOnUse" color-interpolation-filters="sRGB">
<feFlood flood-opacity="0" result="BackgroundImageFix"/>
<feColorMatrix in="SourceAlpha" type="matrix" values="0 0 0 0 0 0 0 0 0 0 0 0 0 0 0 0 0 0 127 0" result="hardAlpha"/>
<feOffset dy="4"/>
<feGaussianBlur stdDeviation="2"/>
<feComposite in2="hardAlpha" operator="out"/>
<feColorMatrix type="matrix" values="0 0 0 0 0 0 0 0 0 0 0 0 0 0 0 0 0 0 0.25 0"/>
<feBlend mode="normal" in2="BackgroundImageFix" result="effect1_dropShadow_146_68"/>
<feBlend mode="normal" in="SourceGraphic" in2="effect1_dropShadow_146_68" result="shape"/>
</filter>
<filter id="filter9_d_146_68" x="15.4634" y="28.7647" width="95.0732" height="9" filterUnits="userSpaceOnUse" color-interpolation-filters="sRGB">
<feFlood flood-opacity="0" result="BackgroundImageFix"/>
<feColorMatrix in="SourceAlpha" type="matrix" values="0 0 0 0 0 0 0 0 0 0 0 0 0 0 0 0 0 0 127 0" result="hardAlpha"/>
<feOffset dy="4"/>
<feGaussianBlur stdDeviation="2"/>
<feComposite in2="hardAlpha" operator="out"/>
<feColorMatrix type="matrix" values="0 0 0 0 0 0 0 0 0 0 0 0 0 0 0 0 0 0 0.25 0"/>
<feBlend mode="normal" in2="BackgroundImageFix" result="effect1_dropShadow_146_68"/>
<feBlend mode="normal" in="SourceGraphic" in2="effect1_dropShadow_146_68" result="shape"/>
</filter>
<filter id="filter10_d_146_68" x="15.4634" y="34.6471" width="95.0732" height="9" filterUnits="userSpaceOnUse" color-interpolation-filters="sRGB">
<feFlood flood-opacity="0" result="BackgroundImageFix"/>
<feColorMatrix in="SourceAlpha" type="matrix" values="0 0 0 0 0 0 0 0 0 0 0 0 0 0 0 0 0 0 127 0" result="hardAlpha"/>
<feOffset dy="4"/>
<feGaussianBlur stdDeviation="2"/>
<feComposite in2="hardAlpha" operator="out"/>
<feColorMatrix type="matrix" values="0 0 0 0 0 0 0 0 0 0 0 0 0 0 0 0 0 0 0.25 0"/>
<feBlend mode="normal" in2="BackgroundImageFix" result="effect1_dropShadow_146_68"/>
<feBlend mode="normal" in="SourceGraphic" in2="effect1_dropShadow_146_68" result="shape"/>
</filter>
<filter id="filter11_d_146_68" x="15.4634" y="40.5294" width="95.0732" height="9" filterUnits="userSpaceOnUse" color-interpolation-filters="sRGB">
<feFlood flood-opacity="0" result="BackgroundImageFix"/>
<feColorMatrix in="SourceAlpha" type="matrix" values="0 0 0 0 0 0 0 0 0 0 0 0 0 0 0 0 0 0 127 0" result="hardAlpha"/>
<feOffset dy="4"/>
<feGaussianBlur stdDeviation="2"/>
<feComposite in2="hardAlpha" operator="out"/>
<feColorMatrix type="matrix" values="0 0 0 0 0 0 0 0 0 0 0 0 0 0 0 0 0 0 0.25 0"/>
<feBlend mode="normal" in2="BackgroundImageFix" result="effect1_dropShadow_146_68"/>
<feBlend mode="normal" in="SourceGraphic" in2="effect1_dropShadow_146_68" result="shape"/>
</filter>
<filter id="filter12_d_146_68" x="15.4634" y="46.4118" width="95.0732" height="9" filterUnits="userSpaceOnUse" color-interpolation-filters="sRGB">
<feFlood flood-opacity="0" result="BackgroundImageFix"/>
<feColorMatrix in="SourceAlpha" type="matrix" values="0 0 0 0 0 0 0 0 0 0 0 0 0 0 0 0 0 0 127 0" result="hardAlpha"/>
<feOffset dy="4"/>
<feGaussianBlur stdDeviation="2"/>
<feComposite in2="hardAlpha" operator="out"/>
<feColorMatrix type="matrix" values="0 0 0 0 0 0 0 0 0 0 0 0 0 0 0 0 0 0 0.25 0"/>
<feBlend mode="normal" in2="BackgroundImageFix" result="effect1_dropShadow_146_68"/>
<feBlend mode="normal" in="SourceGraphic" in2="effect1_dropShadow_146_68" result="shape"/>
</filter>
<filter id="filter13_d_146_68" x="15.4634" y="52.2941" width="95.0732" height="9" filterUnits="userSpaceOnUse" color-interpolation-filters="sRGB">
<feFlood flood-opacity="0" result="BackgroundImageFix"/>
<feColorMatrix in="SourceAlpha" type="matrix" values="0 0 0 0 0 0 0 0 0 0 0 0 0 0 0 0 0 0 127 0" result="hardAlpha"/>
<feOffset dy="4"/>
<feGaussianBlur stdDeviation="2"/>
<feComposite in2="hardAlpha" operator="out"/>
<feColorMatrix type="matrix" values="0 0 0 0 0 0 0 0 0 0 0 0 0 0 0 0 0 0 0.25 0"/>
<feBlend mode="normal" in2="BackgroundImageFix" result="effect1_dropShadow_146_68"/>
<feBlend mode="normal" in="SourceGraphic" in2="effect1_dropShadow_146_68" result="shape"/>
</filter>
<filter id="filter14_d_146_68" x="15.4634" y="58.1765" width="95.0732" height="9" filterUnits="userSpaceOnUse" color-interpolation-filters="sRGB">
<feFlood flood-opacity="0" result="BackgroundImageFix"/>
<feColorMatrix in="SourceAlpha" type="matrix" values="0 0 0 0 0 0 0 0 0 0 0 0 0 0 0 0 0 0 127 0" result="hardAlpha"/>
<feOffset dy="4"/>
<feGaussianBlur stdDeviation="2"/>
<feComposite in2="hardAlpha" operator="out"/>
<feColorMatrix type="matrix" values="0 0 0 0 0 0 0 0 0 0 0 0 0 0 0 0 0 0 0.25 0"/>
<feBlend mode="normal" in2="BackgroundImageFix" result="effect1_dropShadow_146_68"/>
<feBlend mode="normal" in="SourceGraphic" in2="effect1_dropShadow_146_68" result="shape"/>
</filter>
<filter id="filter15_d_146_68" x="15.4634" y="64.0588" width="95.0732" height="9" filterUnits="userSpaceOnUse" color-interpolation-filters="sRGB">
<feFlood flood-opacity="0" result="BackgroundImageFix"/>
<feColorMatrix in="SourceAlpha" type="matrix" values="0 0 0 0 0 0 0 0 0 0 0 0 0 0 0 0 0 0 127 0" result="hardAlpha"/>
<feOffset dy="4"/>
<feGaussianBlur stdDeviation="2"/>
<feComposite in2="hardAlpha" operator="out"/>
<feColorMatrix type="matrix" values="0 0 0 0 0 0 0 0 0 0 0 0 0 0 0 0 0 0 0.25 0"/>
<feBlend mode="normal" in2="BackgroundImageFix" result="effect1_dropShadow_146_68"/>
<feBlend mode="normal" in="SourceGraphic" in2="effect1_dropShadow_146_68" result="shape"/>
</filter>
<filter id="filter16_d_146_68" x="15.4634" y="69.9412" width="95.0732" height="9" filterUnits="userSpaceOnUse" color-interpolation-filters="sRGB">
<feFlood flood-opacity="0" result="BackgroundImageFix"/>
<feColorMatrix in="SourceAlpha" type="matrix" values="0 0 0 0 0 0 0 0 0 0 0 0 0 0 0 0 0 0 127 0" result="hardAlpha"/>
<feOffset dy="4"/>
<feGaussianBlur stdDeviation="2"/>
<feComposite in2="hardAlpha" operator="out"/>
<feColorMatrix type="matrix" values="0 0 0 0 0 0 0 0 0 0 0 0 0 0 0 0 0 0 0.25 0"/>
<feBlend mode="normal" in2="BackgroundImageFix" result="effect1_dropShadow_146_68"/>
<feBlend mode="normal" in="SourceGraphic" in2="effect1_dropShadow_146_68" result="shape"/>
</filter>
<filter id="filter17_d_146_68" x="15.4634" y="75.8235" width="95.0732" height="9" filterUnits="userSpaceOnUse" color-interpolation-filters="sRGB">
<feFlood flood-opacity="0" result="BackgroundImageFix"/>
<feColorMatrix in="SourceAlpha" type="matrix" values="0 0 0 0 0 0 0 0 0 0 0 0 0 0 0 0 0 0 127 0" result="hardAlpha"/>
<feOffset dy="4"/>
<feGaussianBlur stdDeviation="2"/>
<feComposite in2="hardAlpha" operator="out"/>
<feColorMatrix type="matrix" values="0 0 0 0 0 0 0 0 0 0 0 0 0 0 0 0 0 0 0.25 0"/>
<feBlend mode="normal" in2="BackgroundImageFix" result="effect1_dropShadow_146_68"/>
<feBlend mode="normal" in="SourceGraphic" in2="effect1_dropShadow_146_68" result="shape"/>
</filter>
<filter id="filter18_d_146_68" x="15.4634" y="29.7647" width="9" height="55.0588" filterUnits="userSpaceOnUse" color-interpolation-filters="sRGB">
<feFlood flood-opacity="0" result="BackgroundImageFix"/>
<feColorMatrix in="SourceAlpha" type="matrix" values="0 0 0 0 0 0 0 0 0 0 0 0 0 0 0 0 0 0 127 0" result="hardAlpha"/>
<feOffset dy="4"/>
<feGaussianBlur stdDeviation="2"/>
<feComposite in2="hardAlpha" operator="out"/>
<feColorMatrix type="matrix" values="0 0 0 0 0 0 0 0 0 0 0 0 0 0 0 0 0 0 0.25 0"/>
<feBlend mode="normal" in2="BackgroundImageFix" result="effect1_dropShadow_146_68"/>
<feBlend mode="normal" in="SourceGraphic" in2="effect1_dropShadow_146_68" result="shape"/>
</filter>
<filter id="filter19_d_146_68" x="101.707" y="29.7647" width="9" height="55.0588" filterUnits="userSpaceOnUse" color-interpolation-filters="sRGB">
<feFlood flood-opacity="0" result="BackgroundImageFix"/>
<feColorMatrix in="SourceAlpha" type="matrix" values="0 0 0 0 0 0 0 0 0 0 0 0 0 0 0 0 0 0 127 0" result="hardAlpha"/>
<feOffset dy="4"/>
<feGaussianBlur stdDeviation="2"/>
<feComposite in2="hardAlpha" operator="out"/>
<feColorMatrix type="matrix" values="0 0 0 0 0 0 0 0 0 0 0 0 0 0 0 0 0 0 0.25 0"/>
<feBlend mode="normal" in2="BackgroundImageFix" result="effect1_dropShadow_146_68"/>
<feBlend mode="normal" in="SourceGraphic" in2="effect1_dropShadow_146_68" result="shape"/>
</filter>
<filter id="filter20_d_146_68" x="80.9756" y="29.7647" width="9" height="55.0588" filterUnits="userSpaceOnUse" color-interpolation-filters="sRGB">
<feFlood flood-opacity="0" result="BackgroundImageFix"/>
<feColorMatrix in="SourceAlpha" type="matrix" values="0 0 0 0 0 0 0 0 0 0 0 0 0 0 0 0 0 0 127 0" result="hardAlpha"/>
<feOffset dy="4"/>
<feGaussianBlur stdDeviation="2"/>
<feComposite in2="hardAlpha" operator="out"/>
<feColorMatrix type="matrix" values="0 0 0 0 0 0 0 0 0 0 0 0 0 0 0 0 0 0 0.25 0"/>
<feBlend mode="normal" in2="BackgroundImageFix" result="effect1_dropShadow_146_68"/>
<feBlend mode="normal" in="SourceGraphic" in2="effect1_dropShadow_146_68" result="shape"/>
</filter>
<filter id="filter21_d_146_68" x="89.2683" y="29.7647" width="9" height="55.0588" filterUnits="userSpaceOnUse" color-interpolation-filters="sRGB">
<feFlood flood-opacity="0" result="BackgroundImageFix"/>
<feColorMatrix in="SourceAlpha" type="matrix" values="0 0 0 0 0 0 0 0 0 0 0 0 0 0 0 0 0 0 127 0" result="hardAlpha"/>
<feOffset dy="4"/>
<feGaussianBlur stdDeviation="2"/>
<feComposite in2="hardAlpha" operator="out"/>
<feColorMatrix type="matrix" values="0 0 0 0 0 0 0 0 0 0 0 0 0 0 0 0 0 0 0.25 0"/>
<feBlend mode="normal" in2="BackgroundImageFix" result="effect1_dropShadow_146_68"/>
<feBlend mode="normal" in="SourceGraphic" in2="effect1_dropShadow_146_68" result="shape"/>
</filter>
<filter id="filter22_d_146_68" x="64.3903" y="29.7647" width="9" height="55.0588" filterUnits="userSpaceOnUse" color-interpolation-filters="sRGB">
<feFlood flood-opacity="0" result="BackgroundImageFix"/>
<feColorMatrix in="SourceAlpha" type="matrix" values="0 0 0 0 0 0 0 0 0 0 0 0 0 0 0 0 0 0 127 0" result="hardAlpha"/>
<feOffset dy="4"/>
<feGaussianBlur stdDeviation="2"/>
<feComposite in2="hardAlpha" operator="out"/>
<feColorMatrix type="matrix" values="0 0 0 0 0 0 0 0 0 0 0 0 0 0 0 0 0 0 0.25 0"/>
<feBlend mode="normal" in2="BackgroundImageFix" result="effect1_dropShadow_146_68"/>
<feBlend mode="normal" in="SourceGraphic" in2="effect1_dropShadow_146_68" result="shape"/>
</filter>
<filter id="filter23_d_146_68" x="72.6829" y="29.7647" width="9" height="55.0588" filterUnits="userSpaceOnUse" color-interpolation-filters="sRGB">
<feFlood flood-opacity="0" result="BackgroundImageFix"/>
<feColorMatrix in="SourceAlpha" type="matrix" values="0 0 0 0 0 0 0 0 0 0 0 0 0 0 0 0 0 0 127 0" result="hardAlpha"/>
<feOffset dy="4"/>
<feGaussianBlur stdDeviation="2"/>
<feComposite in2="hardAlpha" operator="out"/>
<feColorMatrix type="matrix" values="0 0 0 0 0 0 0 0 0 0 0 0 0 0 0 0 0 0 0.25 0"/>
<feBlend mode="normal" in2="BackgroundImageFix" result="effect1_dropShadow_146_68"/>
<feBlend mode="normal" in="SourceGraphic" in2="effect1_dropShadow_146_68" result="shape"/>
</filter>
<filter id="filter24_d_146_68" x="47.8049" y="29.7647" width="9" height="55.0588" filterUnits="userSpaceOnUse" color-interpolation-filters="sRGB">
<feFlood flood-opacity="0" result="BackgroundImageFix"/>
<feColorMatrix in="SourceAlpha" type="matrix" values="0 0 0 0 0 0 0 0 0 0 0 0 0 0 0 0 0 0 127 0" result="hardAlpha"/>
<feOffset dy="4"/>
<feGaussianBlur stdDeviation="2"/>
<feComposite in2="hardAlpha" operator="out"/>
<feColorMatrix type="matrix" values="0 0 0 0 0 0 0 0 0 0 0 0 0 0 0 0 0 0 0.25 0"/>
<feBlend mode="normal" in2="BackgroundImageFix" result="effect1_dropShadow_146_68"/>
<feBlend mode="normal" in="SourceGraphic" in2="effect1_dropShadow_146_68" result="shape"/>
</filter>
<filter id="filter25_d_146_68" x="56.0976" y="29.7647" width="9" height="55.0588" filterUnits="userSpaceOnUse" color-interpolation-filters="sRGB">
<feFlood flood-opacity="0" result="BackgroundImageFix"/>
<feColorMatrix in="SourceAlpha" type="matrix" values="0 0 0 0 0 0 0 0 0 0 0 0 0 0 0 0 0 0 127 0" result="hardAlpha"/>
<feOffset dy="4"/>
<feGaussianBlur stdDeviation="2"/>
<feComposite in2="hardAlpha" operator="out"/>
<feColorMatrix type="matrix" values="0 0 0 0 0 0 0 0 0 0 0 0 0 0 0 0 0 0 0.25 0"/>
<feBlend mode="normal" in2="BackgroundImageFix" result="effect1_dropShadow_146_68"/>
<feBlend mode="normal" in="SourceGraphic" in2="effect1_dropShadow_146_68" result="shape"/>
</filter>
</defs>
</svg>
