<svg width="136" height="118" viewBox="0 0 136 118" fill="none" xmlns="http://www.w3.org/2000/svg">
<g filter="url(#filter0_d_22_70)">
<g filter="url(#filter1_d_22_70)">
<path d="M36.0059 48.6991H103.46M36.0059 69.2663H103.46" stroke="#465049" stroke-opacity="0.95" stroke-width="5" stroke-linejoin="round" shape-rendering="crispEdges"/>
</g>
<path d="M12.0979 97V20.0964C12.0979 17.335 14.3365 15.0964 17.0979 15.0964H118.098C120.859 15.0964 123.098 17.335 123.098 20.0964V97C123.098 99.7614 120.859 102 118.098 102H17.0979C14.3365 102 12.0979 99.7614 12.0979 97Z" stroke="#465049" stroke-opacity="0.95" stroke-width="16"/>
<g filter="url(#filter2_d_22_70)">
<path d="M36.6461 4.99999C36.6461 2.23857 38.8846 0 41.6461 0H44.1336C46.895 0 49.1336 2.23858 49.1336 5V26.3846C49.1336 29.146 46.895 31.3846 44.1336 31.3846H41.6461C38.8846 31.3846 36.6461 29.146 36.6461 26.3846V4.99999Z" fill="#465049" fill-opacity="0.95" shape-rendering="crispEdges"/>
<path d="M37.6461 4.99999C37.6461 2.79086 39.4369 1 41.6461 1H44.1336C46.3427 1 48.1336 2.79086 48.1336 5V26.3846C48.1336 28.5938 46.3427 30.3846 44.1336 30.3846H41.6461C39.4369 30.3846 37.6461 28.5938 37.6461 26.3846V4.99999Z" stroke="#DFD7D7" stroke-width="2" shape-rendering="crispEdges"/>
</g>
<g filter="url(#filter3_d_22_70)">
<path d="M61.6211 4.99999C61.6211 2.23857 63.8597 0 66.6211 0H69.1086C71.87 0 74.1086 2.23858 74.1086 5V26.3846C74.1086 29.146 71.87 31.3846 69.1086 31.3846H66.6211C63.8597 31.3846 61.6211 29.146 61.6211 26.3846V4.99999Z" fill="#465049" fill-opacity="0.95" shape-rendering="crispEdges"/>
<path d="M62.6211 4.99999C62.6211 2.79086 64.412 1 66.6211 1H69.1086C71.3177 1 73.1086 2.79086 73.1086 5V26.3846C73.1086 28.5938 71.3177 30.3846 69.1086 30.3846H66.6211C64.412 30.3846 62.6211 28.5938 62.6211 26.3846V4.99999Z" stroke="#DFD7D7" stroke-width="2" shape-rendering="crispEdges"/>
</g>
<g filter="url(#filter4_d_22_70)">
<path d="M89.3711 4.99999C89.3711 2.23857 91.6097 0 94.3711 0H96.8586C99.62 0 101.859 2.23858 101.859 5V26.3846C101.859 29.146 99.62 31.3846 96.8586 31.3846H94.3711C91.6097 31.3846 89.3711 29.146 89.3711 26.3846V4.99999Z" fill="#465049" fill-opacity="0.95" shape-rendering="crispEdges"/>
<path d="M90.3711 4.99999C90.3711 2.79086 92.162 1 94.3711 1H96.8586C99.0677 1 100.859 2.79086 100.859 5V26.3846C100.859 28.5938 99.0677 30.3846 96.8586 30.3846H94.3711C92.162 30.3846 90.3711 28.5938 90.3711 26.3846V4.99999Z" stroke="#DFD7D7" stroke-width="2" shape-rendering="crispEdges"/>
</g>
</g>
<defs>
<filter id="filter0_d_22_70" x="0.0979004" y="0" width="135" height="118" filterUnits="userSpaceOnUse" color-interpolation-filters="sRGB">
<feFlood flood-opacity="0" result="BackgroundImageFix"/>
<feColorMatrix in="SourceAlpha" type="matrix" values="0 0 0 0 0 0 0 0 0 0 0 0 0 0 0 0 0 0 127 0" result="hardAlpha"/>
<feOffset dy="4"/>
<feGaussianBlur stdDeviation="2"/>
<feComposite in2="hardAlpha" operator="out"/>
<feColorMatrix type="matrix" values="0 0 0 0 0 0 0 0 0 0 0 0 0 0 0 0 0 0 0.25 0"/>
<feBlend mode="normal" in2="BackgroundImageFix" result="effect1_dropShadow_22_70"/>
<feBlend mode="normal" in="SourceGraphic" in2="effect1_dropShadow_22_70" result="shape"/>
</filter>
<filter id="filter1_d_22_70" x="32.0059" y="46.1991" width="75.4539" height="33.5672" filterUnits="userSpaceOnUse" color-interpolation-filters="sRGB">
<feFlood flood-opacity="0" result="BackgroundImageFix"/>
<feColorMatrix in="SourceAlpha" type="matrix" values="0 0 0 0 0 0 0 0 0 0 0 0 0 0 0 0 0 0 127 0" result="hardAlpha"/>
<feOffset dy="4"/>
<feGaussianBlur stdDeviation="2"/>
<feComposite in2="hardAlpha" operator="out"/>
<feColorMatrix type="matrix" values="0 0 0 0 0 0 0 0 0 0 0 0 0 0 0 0 0 0 0.25 0"/>
<feBlend mode="normal" in2="BackgroundImageFix" result="effect1_dropShadow_22_70"/>
<feBlend mode="normal" in="SourceGraphic" in2="effect1_dropShadow_22_70" result="shape"/>
</filter>
<filter id="filter2_d_22_70" x="32.6461" y="0" width="20.4875" height="39.3846" filterUnits="userSpaceOnUse" color-interpolation-filters="sRGB">
<feFlood flood-opacity="0" result="BackgroundImageFix"/>
<feColorMatrix in="SourceAlpha" type="matrix" values="0 0 0 0 0 0 0 0 0 0 0 0 0 0 0 0 0 0 127 0" result="hardAlpha"/>
<feOffset dy="4"/>
<feGaussianBlur stdDeviation="2"/>
<feComposite in2="hardAlpha" operator="out"/>
<feColorMatrix type="matrix" values="0 0 0 0 0 0 0 0 0 0 0 0 0 0 0 0 0 0 0.25 0"/>
<feBlend mode="normal" in2="BackgroundImageFix" result="effect1_dropShadow_22_70"/>
<feBlend mode="normal" in="SourceGraphic" in2="effect1_dropShadow_22_70" result="shape"/>
</filter>
<filter id="filter3_d_22_70" x="57.6211" y="0" width="20.4875" height="39.3846" filterUnits="userSpaceOnUse" color-interpolation-filters="sRGB">
<feFlood flood-opacity="0" result="BackgroundImageFix"/>
<feColorMatrix in="SourceAlpha" type="matrix" values="0 0 0 0 0 0 0 0 0 0 0 0 0 0 0 0 0 0 127 0" result="hardAlpha"/>
<feOffset dy="4"/>
<feGaussianBlur stdDeviation="2"/>
<feComposite in2="hardAlpha" operator="out"/>
<feColorMatrix type="matrix" values="0 0 0 0 0 0 0 0 0 0 0 0 0 0 0 0 0 0 0.25 0"/>
<feBlend mode="normal" in2="BackgroundImageFix" result="effect1_dropShadow_22_70"/>
<feBlend mode="normal" in="SourceGraphic" in2="effect1_dropShadow_22_70" result="shape"/>
</filter>
<filter id="filter4_d_22_70" x="85.3711" y="0" width="20.4875" height="39.3846" filterUnits="userSpaceOnUse" color-interpolation-filters="sRGB">
<feFlood flood-opacity="0" result="BackgroundImageFix"/>
<feColorMatrix in="SourceAlpha" type="matrix" values="0 0 0 0 0 0 0 0 0 0 0 0 0 0 0 0 0 0 127 0" result="hardAlpha"/>
<feOffset dy="4"/>
<feGaussianBlur stdDeviation="2"/>
<feComposite in2="hardAlpha" operator="out"/>
<feColorMatrix type="matrix" values="0 0 0 0 0 0 0 0 0 0 0 0 0 0 0 0 0 0 0.25 0"/>
<feBlend mode="normal" in2="BackgroundImageFix" result="effect1_dropShadow_22_70"/>
<feBlend mode="normal" in="SourceGraphic" in2="effect1_dropShadow_22_70" result="shape"/>
</filter>
</defs>
</svg>
