<svg width="120" height="113" viewBox="0 0 120 113" fill="none" xmlns="http://www.w3.org/2000/svg">
<g filter="url(#filter0_d_17_256)">
<path d="M21.993 45.0139L21.6998 80.9561C21.6322 89.2401 28.2929 96.0104 36.5769 96.078L51.7699 96.2019" stroke="#465049" stroke-opacity="0.95" stroke-width="16"/>
<path d="M45.3754 98.414L45.5478 77.2826C45.5928 71.76 50.1064 67.3195 55.629 67.3645L64.1059 67.4337C69.6286 67.4787 74.0691 71.9923 74.024 77.5149L73.8516 98.6463" stroke="#465049" stroke-opacity="0.95" stroke-width="16"/>
<path d="M98.1019 45.6348L97.8087 81.5769C97.7411 89.8609 90.9708 96.5217 82.6868 96.4541L67.5368 96.3305" stroke="#465049" stroke-opacity="0.95" stroke-width="16"/>
<path d="M9.31728 43.7784L54.8436 12.4951C58.3045 10.117 62.8823 10.1544 66.3039 12.5886L111.314 44.6104" stroke="#465049" stroke-opacity="0.95" stroke-width="16"/>
<path d="M92.3328 22.9454L92.3667 18.7946C92.4117 13.2719 87.9712 8.75842 82.4486 8.71337L79.5045 8.68935" stroke="#465049" stroke-opacity="0.95" stroke-width="16"/>
</g>
<defs>
<filter id="filter0_d_17_256" x="0.786621" y="0.689621" width="119.165" height="111.765" filterUnits="userSpaceOnUse" color-interpolation-filters="sRGB">
<feFlood flood-opacity="0" result="BackgroundImageFix"/>
<feColorMatrix in="SourceAlpha" type="matrix" values="0 0 0 0 0 0 0 0 0 0 0 0 0 0 0 0 0 0 127 0" result="hardAlpha"/>
<feOffset dy="4"/>
<feGaussianBlur stdDeviation="2"/>
<feComposite in2="hardAlpha" operator="out"/>
<feColorMatrix type="matrix" values="0 0 0 0 0 0 0 0 0 0 0 0 0 0 0 0 0 0 0.25 0"/>
<feBlend mode="normal" in2="BackgroundImageFix" result="effect1_dropShadow_17_256"/>
<feBlend mode="normal" in="SourceGraphic" in2="effect1_dropShadow_17_256" result="shape"/>
</filter>
</defs>
</svg>
