<svg width="1973" height="539" viewBox="0 0 1973 539" fill="none" xmlns="http://www.w3.org/2000/svg">
<g clip-path="url(#clip0_144_19)">
<rect width="1973" height="539" fill="#295234" fill-opacity="0.9"/>
<rect x="1483.94" y="245.29" width="562.435" height="471.157" rx="235.578" transform="rotate(23.3015 1483.94 245.29)" fill="#15391F" fill-opacity="0.33"/>
<rect x="1735.34" y="176.327" width="73.271" height="67.9416" rx="33.9708" transform="rotate(23.3015 1735.34 176.327)" fill="#295234" fill-opacity="0.33"/>
<rect x="-65.4932" y="-219.461" width="648.45" height="480.572" rx="235.578" transform="rotate(23.3015 -65.4932 -219.461)" fill="#15391F" fill-opacity="0.67"/>
<rect x="1325.25" y="-179.399" width="310.971" height="362.234" rx="62" transform="rotate(23.3015 1325.25 -179.399)" fill="#1A4225"/>
<rect x="376.603" y="-260.571" width="810.958" height="97.5884" rx="48.7942" transform="rotate(23.3015 376.603 -260.571)" fill="#2B5236"/>
<rect width="453.904" height="335.281" rx="167.641" transform="matrix(-0.918436 -0.39557 -0.39557 0.918436 1033.16 319.062)" fill="#455229"/>
<rect width="366.173" height="274.076" rx="137.038" transform="matrix(-0.918436 -0.39557 -0.39557 0.918436 267.508 462.948)" fill="#455229"/>
<g filter="url(#filter0_i_144_19)">
<rect x="1860.64" y="-220.013" width="425.673" height="402.565" rx="201.283" transform="rotate(23.3015 1860.64 -220.013)" fill="#0F110D" fill-opacity="0.77"/>
</g>
<g filter="url(#filter1_i_144_19)">
<rect x="1149.5" y="269.119" width="95.7584" height="139.028" rx="30" transform="rotate(6.02447 1149.5 269.119)" fill="#0F110D" fill-opacity="0.77"/>
</g>
</g>
<defs>
<filter id="filter0_i_144_19" x="1764.55" y="-156.861" width="423.891" height="415.809" filterUnits="userSpaceOnUse" color-interpolation-filters="sRGB">
<feFlood flood-opacity="0" result="BackgroundImageFix"/>
<feBlend mode="normal" in="SourceGraphic" in2="BackgroundImageFix" result="shape"/>
<feColorMatrix in="SourceAlpha" type="matrix" values="0 0 0 0 0 0 0 0 0 0 0 0 0 0 0 0 0 0 127 0" result="hardAlpha"/>
<feOffset dy="4"/>
<feGaussianBlur stdDeviation="2"/>
<feComposite in2="hardAlpha" operator="arithmetic" k2="-1" k3="1"/>
<feColorMatrix type="matrix" values="0 0 0 0 0 0 0 0 0 0 0 0 0 0 0 0 0 0 0.25 0"/>
<feBlend mode="normal" in2="shape" result="effect1_innerShadow_144_19"/>
</filter>
<filter id="filter1_i_144_19" x="1137.89" y="272.1" width="103.86" height="146.35" filterUnits="userSpaceOnUse" color-interpolation-filters="sRGB">
<feFlood flood-opacity="0" result="BackgroundImageFix"/>
<feBlend mode="normal" in="SourceGraphic" in2="BackgroundImageFix" result="shape"/>
<feColorMatrix in="SourceAlpha" type="matrix" values="0 0 0 0 0 0 0 0 0 0 0 0 0 0 0 0 0 0 127 0" result="hardAlpha"/>
<feOffset dy="4"/>
<feGaussianBlur stdDeviation="2"/>
<feComposite in2="hardAlpha" operator="arithmetic" k2="-1" k3="1"/>
<feColorMatrix type="matrix" values="0 0 0 0 0 0 0 0 0 0 0 0 0 0 0 0 0 0 0.25 0"/>
<feBlend mode="normal" in2="shape" result="effect1_innerShadow_144_19"/>
</filter>
<clipPath id="clip0_144_19">
<rect width="1973" height="539" fill="white"/>
</clipPath>
</defs>
</svg>
